<mxfile host="app.diagrams.net" agent="Mozilla/5.0 (X11; Ubuntu; Linux x86_64; rv:139.0) Gecko/20100101 Firefox/139.0" version="27.1.4">
  <diagram name="PÃ¡gina-1" id="tk883FMMthcRZrW7SJB8">
    <mxGraphModel dx="3812" dy="3319" grid="1" gridSize="10" guides="1" tooltips="1" connect="1" arrows="1" fold="1" page="1" pageScale="1" pageWidth="827" pageHeight="1169" math="0" shadow="0">
      <root>
        <mxCell id="0" />
        <mxCell id="1" parent="0" />
        <mxCell id="6wgVJU0eq-c5YWtlfM_m-31" value="FieldSection &amp;lt;&amp;lt;Struct&amp;gt;&amp;gt;" style="swimlane;fontStyle=1;align=center;verticalAlign=top;childLayout=stackLayout;horizontal=1;startSize=26;horizontalStack=0;resizeParent=1;resizeParentMax=0;resizeLast=0;collapsible=1;marginBottom=0;whiteSpace=wrap;html=1;flipV=0;flipH=1;" parent="1" vertex="1">
          <mxGeometry x="2840" y="240" width="230" height="170" as="geometry" />
        </mxCell>
        <mxCell id="6wgVJU0eq-c5YWtlfM_m-32" value="&lt;div&gt;+ fields: map&amp;lt;string, string&amp;gt;&lt;/div&gt;&lt;div&gt;+ port: Integer&lt;/div&gt;&lt;div&gt;+ content_length: Integer&lt;/div&gt;&lt;div&gt;+ transfer_encodings: Coding []&lt;/div&gt;&lt;div&gt;+ connections: String []&lt;/div&gt;&lt;div&gt;+ expectations: String []&lt;/div&gt;&lt;div&gt;+ content_type: MediaType&lt;/div&gt;&lt;div&gt;+ cookies: map&amp;lt;string, string&amp;gt;&lt;/div&gt;&lt;div&gt;+ close_status: e_close_status&lt;/div&gt;" style="text;strokeColor=none;fillColor=none;align=left;verticalAlign=top;spacingLeft=4;spacingRight=4;overflow=hidden;rotatable=0;points=[[0,0.5],[1,0.5]];portConstraint=eastwest;whiteSpace=wrap;html=1;" parent="6wgVJU0eq-c5YWtlfM_m-31" vertex="1">
          <mxGeometry y="26" width="230" height="144" as="geometry" />
        </mxCell>
        <mxCell id="1a8JrGUghkv8qu4YOcdz-1" value="HTTPRequest &amp;lt;&amp;lt;Struct&amp;gt;&amp;gt;" style="swimlane;fontStyle=1;align=center;verticalAlign=top;childLayout=stackLayout;horizontal=1;startSize=26;horizontalStack=0;resizeParent=1;resizeParentMax=0;resizeLast=0;collapsible=1;marginBottom=0;whiteSpace=wrap;html=1;flipV=0;flipH=1;" parent="1" vertex="1">
          <mxGeometry x="2350" y="440" width="280" height="170" as="geometry" />
        </mxCell>
        <mxCell id="1a8JrGUghkv8qu4YOcdz-2" value="&lt;div&gt;+ method: HTTPMethod&lt;/div&gt;&lt;div&gt;+ headers: FieldSection&lt;/div&gt;&lt;div&gt;+ body: HTTPBody&lt;/div&gt;&lt;div&gt;+ uri: URI&lt;/div&gt;&lt;div&gt;+ protocol: String&lt;/div&gt;" style="text;strokeColor=none;fillColor=none;align=left;verticalAlign=top;spacingLeft=4;spacingRight=4;overflow=hidden;rotatable=0;points=[[0,0.5],[1,0.5]];portConstraint=eastwest;whiteSpace=wrap;html=1;" parent="1a8JrGUghkv8qu4YOcdz-1" vertex="1">
          <mxGeometry y="26" width="280" height="84" as="geometry" />
        </mxCell>
        <mxCell id="1a8JrGUghkv8qu4YOcdz-3" value="" style="line;strokeWidth=1;fillColor=none;align=left;verticalAlign=middle;spacingTop=-1;spacingLeft=3;spacingRight=3;rotatable=0;labelPosition=right;points=[];portConstraint=eastwest;strokeColor=inherit;" parent="1a8JrGUghkv8qu4YOcdz-1" vertex="1">
          <mxGeometry y="110" width="280" height="8" as="geometry" />
        </mxCell>
        <mxCell id="1a8JrGUghkv8qu4YOcdz-4" value="&lt;div&gt;+ get_port(): int&lt;/div&gt;&lt;div&gt;+ get_hos(): string&lt;/div&gt;&lt;div&gt;+ get_path(): string&lt;/div&gt;" style="text;strokeColor=none;fillColor=none;align=left;verticalAlign=top;spacingLeft=4;spacingRight=4;overflow=hidden;rotatable=0;points=[[0,0.5],[1,0.5]];portConstraint=eastwest;whiteSpace=wrap;html=1;" parent="1a8JrGUghkv8qu4YOcdz-1" vertex="1">
          <mxGeometry y="118" width="280" height="52" as="geometry" />
        </mxCell>
        <mxCell id="1a8JrGUghkv8qu4YOcdz-15" value="HTTPMethod &amp;lt;&amp;lt;Enum&amp;gt;&amp;gt;" style="swimlane;fontStyle=1;align=center;verticalAlign=top;childLayout=stackLayout;horizontal=1;startSize=26;horizontalStack=0;resizeParent=1;resizeParentMax=0;resizeLast=0;collapsible=1;marginBottom=0;whiteSpace=wrap;html=1;flipV=0;flipH=1;" parent="1" vertex="1">
          <mxGeometry x="2820" y="659" width="280" height="52" as="geometry" />
        </mxCell>
        <mxCell id="1a8JrGUghkv8qu4YOcdz-16" value="NOMETHOD, HEAD, GET, POST, DELETE, PUT" style="text;strokeColor=none;fillColor=none;align=left;verticalAlign=top;spacingLeft=4;spacingRight=4;overflow=hidden;rotatable=0;points=[[0,0.5],[1,0.5]];portConstraint=eastwest;whiteSpace=wrap;html=1;" parent="1a8JrGUghkv8qu4YOcdz-15" vertex="1">
          <mxGeometry y="26" width="280" height="26" as="geometry" />
        </mxCell>
        <mxCell id="1a8JrGUghkv8qu4YOcdz-20" value="URI &amp;lt;&amp;lt;Struct&amp;gt;&amp;gt;" style="swimlane;fontStyle=1;align=center;verticalAlign=top;childLayout=stackLayout;horizontal=1;startSize=26;horizontalStack=0;resizeParent=1;resizeParentMax=0;resizeLast=0;collapsible=1;marginBottom=0;whiteSpace=wrap;html=1;flipV=0;flipH=1;" parent="1" vertex="1">
          <mxGeometry x="2880" y="520" width="160" height="100" as="geometry" />
        </mxCell>
        <mxCell id="1a8JrGUghkv8qu4YOcdz-21" value="&lt;div&gt;+ host: String&lt;/div&gt;&lt;div&gt;+ port: Integer&lt;/div&gt;&lt;div&gt;+ path: String&lt;/div&gt;&lt;div&gt;+ query: String&lt;/div&gt;&lt;div&gt;&lt;br&gt;&lt;/div&gt;" style="text;strokeColor=none;fillColor=none;align=left;verticalAlign=top;spacingLeft=4;spacingRight=4;overflow=hidden;rotatable=0;points=[[0,0.5],[1,0.5]];portConstraint=eastwest;whiteSpace=wrap;html=1;" parent="1a8JrGUghkv8qu4YOcdz-20" vertex="1">
          <mxGeometry y="26" width="160" height="74" as="geometry" />
        </mxCell>
        <mxCell id="FcTIGHXHcNx-jRWacmQ_-8" value="HTTPBody &amp;lt;&amp;lt;Struct&amp;gt;&amp;gt;" style="swimlane;fontStyle=1;align=center;verticalAlign=top;childLayout=stackLayout;horizontal=1;startSize=26;horizontalStack=0;resizeParent=1;resizeParentMax=0;resizeLast=0;collapsible=1;marginBottom=0;whiteSpace=wrap;html=1;flipV=0;flipH=1;" parent="1" vertex="1">
          <mxGeometry x="2870" y="440" width="170" height="50" as="geometry" />
        </mxCell>
        <mxCell id="FcTIGHXHcNx-jRWacmQ_-9" value="+ content: string" style="text;strokeColor=none;fillColor=none;align=left;verticalAlign=top;spacingLeft=4;spacingRight=4;overflow=hidden;rotatable=0;points=[[0,0.5],[1,0.5]];portConstraint=eastwest;whiteSpace=wrap;html=1;" parent="FcTIGHXHcNx-jRWacmQ_-8" vertex="1">
          <mxGeometry y="26" width="170" height="24" as="geometry" />
        </mxCell>
        <mxCell id="FlUNBvBTZBMKE0Q8Y5GF-43" value="e_close_status &amp;lt;&amp;lt;Enum&amp;gt;&amp;gt;" style="swimlane;fontStyle=1;align=center;verticalAlign=top;childLayout=stackLayout;horizontal=1;startSize=26;horizontalStack=0;resizeParent=1;resizeParentMax=0;resizeLast=0;collapsible=1;marginBottom=0;whiteSpace=wrap;html=1;flipV=0;flipH=1;" vertex="1" parent="1">
          <mxGeometry x="3110" y="299" width="280" height="52" as="geometry" />
        </mxCell>
        <mxCell id="FlUNBvBTZBMKE0Q8Y5GF-44" value="Keep-Alive, Close" style="text;strokeColor=none;fillColor=none;align=left;verticalAlign=top;spacingLeft=4;spacingRight=4;overflow=hidden;rotatable=0;points=[[0,0.5],[1,0.5]];portConstraint=eastwest;whiteSpace=wrap;html=1;" vertex="1" parent="FlUNBvBTZBMKE0Q8Y5GF-43">
          <mxGeometry y="26" width="280" height="26" as="geometry" />
        </mxCell>
        <mxCell id="FlUNBvBTZBMKE0Q8Y5GF-46" value="Coding &amp;lt;&amp;lt;Struct&amp;gt;&amp;gt;" style="swimlane;fontStyle=1;align=center;verticalAlign=top;childLayout=stackLayout;horizontal=1;startSize=26;horizontalStack=0;resizeParent=1;resizeParentMax=0;resizeLast=0;collapsible=1;marginBottom=0;whiteSpace=wrap;html=1;flipV=0;flipH=1;" vertex="1" parent="1">
          <mxGeometry x="2840" y="110" width="230" height="80" as="geometry" />
        </mxCell>
        <mxCell id="FlUNBvBTZBMKE0Q8Y5GF-47" value="&lt;div&gt;+ name: String&lt;/div&gt;&lt;div&gt;+ parameters: [pair&amp;lt;string, string&amp;gt;]&lt;/div&gt;" style="text;strokeColor=none;fillColor=none;align=left;verticalAlign=top;spacingLeft=4;spacingRight=4;overflow=hidden;rotatable=0;points=[[0,0.5],[1,0.5]];portConstraint=eastwest;whiteSpace=wrap;html=1;" vertex="1" parent="FlUNBvBTZBMKE0Q8Y5GF-46">
          <mxGeometry y="26" width="230" height="54" as="geometry" />
        </mxCell>
        <mxCell id="6wgVJU0eq-c5YWtlfM_m-1" value="Logger &amp;lt;&amp;lt;Singleton&amp;gt;&amp;gt;&lt;div&gt;&amp;nbsp;&lt;/div&gt;" style="swimlane;fontStyle=1;align=center;verticalAlign=top;childLayout=stackLayout;horizontal=1;startSize=26;horizontalStack=0;resizeParent=1;resizeParentMax=0;resizeLast=0;collapsible=1;marginBottom=0;whiteSpace=wrap;html=1;" parent="1" vertex="1">
          <mxGeometry x="190" y="340" width="240" height="320" as="geometry" />
        </mxCell>
        <mxCell id="6wgVJU0eq-c5YWtlfM_m-2" value="&lt;div&gt;- ERR_PREFIX &amp;lt;&amp;lt;static const&amp;gt;&amp;gt;&lt;/div&gt;&lt;div&gt;- MSG_PREFIX &amp;lt;&amp;lt;static const&amp;gt;&amp;gt;&lt;/div&gt;&lt;div&gt;- WAR_PREFIX &amp;lt;&amp;lt;static const&amp;gt;&amp;gt;&lt;/div&gt;&lt;div&gt;- DEBUG_PREFIX &amp;lt;&amp;lt;static const&amp;gt;&amp;gt;&lt;/div&gt;&lt;div&gt;&lt;br&gt;&lt;/div&gt;&lt;div&gt;- error_os: ostream *&lt;/div&gt;&lt;div&gt;- information_os: ostream *&lt;/div&gt;&lt;div&gt;-  warning_os: ostream *&lt;/div&gt;&lt;div&gt;- log_level: LogType&lt;/div&gt;" style="text;strokeColor=none;fillColor=none;align=left;verticalAlign=top;spacingLeft=4;spacingRight=4;overflow=hidden;rotatable=0;points=[[0,0.5],[1,0.5]];portConstraint=eastwest;whiteSpace=wrap;html=1;" parent="6wgVJU0eq-c5YWtlfM_m-1" vertex="1">
          <mxGeometry y="26" width="240" height="144" as="geometry" />
        </mxCell>
        <mxCell id="6wgVJU0eq-c5YWtlfM_m-3" value="" style="line;strokeWidth=1;fillColor=none;align=left;verticalAlign=middle;spacingTop=-1;spacingLeft=3;spacingRight=3;rotatable=0;labelPosition=right;points=[];portConstraint=eastwest;strokeColor=inherit;" parent="6wgVJU0eq-c5YWtlfM_m-1" vertex="1">
          <mxGeometry y="170" width="240" height="10" as="geometry" />
        </mxCell>
        <mxCell id="6wgVJU0eq-c5YWtlfM_m-4" value="&lt;div&gt;&lt;span style=&quot;background-color: transparent; color: light-dark(rgb(0, 0, 0), rgb(255, 255, 255));&quot;&gt;+ Logger(LogType, ostream)&lt;/span&gt;&lt;/div&gt;&lt;div&gt;+ Logger(LogType, string)&lt;/div&gt;&lt;div&gt;+ setOutput(LogType, String)&lt;/div&gt;&lt;div&gt;+ setOutput(LogType, ostream)&lt;/div&gt;&lt;div&gt;+ info(string ...)&lt;/div&gt;&lt;div&gt;&lt;div&gt;+ warning(string ...)&lt;/div&gt;&lt;/div&gt;&lt;div&gt;&lt;div&gt;+ error(string ...)&lt;/div&gt;&lt;/div&gt;&lt;div&gt;&lt;br&gt;&lt;/div&gt;&lt;div&gt;- output_timestamp(ostream * os): void&lt;/div&gt;" style="text;strokeColor=none;fillColor=none;align=left;verticalAlign=top;spacingLeft=4;spacingRight=4;overflow=hidden;rotatable=0;points=[[0,0.5],[1,0.5]];portConstraint=eastwest;whiteSpace=wrap;html=1;" parent="6wgVJU0eq-c5YWtlfM_m-1" vertex="1">
          <mxGeometry y="180" width="240" height="140" as="geometry" />
        </mxCell>
        <mxCell id="6wgVJU0eq-c5YWtlfM_m-7" value="LogType &amp;lt;&amp;lt;enum&amp;gt;&amp;gt;" style="swimlane;fontStyle=1;align=center;verticalAlign=top;childLayout=stackLayout;horizontal=1;startSize=26;horizontalStack=0;resizeParent=1;resizeParentMax=0;resizeLast=0;collapsible=1;marginBottom=0;whiteSpace=wrap;html=1;" parent="1" vertex="1">
          <mxGeometry x="235" y="219" width="150" height="52" as="geometry" />
        </mxCell>
        <mxCell id="6wgVJU0eq-c5YWtlfM_m-8" value="INFO, WAR, ERR" style="text;strokeColor=none;fillColor=none;align=left;verticalAlign=top;spacingLeft=4;spacingRight=4;overflow=hidden;rotatable=0;points=[[0,0.5],[1,0.5]];portConstraint=eastwest;whiteSpace=wrap;html=1;" parent="6wgVJU0eq-c5YWtlfM_m-7" vertex="1">
          <mxGeometry y="26" width="150" height="26" as="geometry" />
        </mxCell>
        <mxCell id="6wgVJU0eq-c5YWtlfM_m-13" value="" style="endArrow=open;endFill=1;endSize=12;html=1;rounded=0;" parent="1" source="6wgVJU0eq-c5YWtlfM_m-1" target="6wgVJU0eq-c5YWtlfM_m-7" edge="1">
          <mxGeometry width="160" relative="1" as="geometry">
            <mxPoint x="243" y="350" as="sourcePoint" />
            <mxPoint x="206" y="262" as="targetPoint" />
          </mxGeometry>
        </mxCell>
        <mxCell id="6wgVJU0eq-c5YWtlfM_m-14" value="1" style="edgeLabel;html=1;align=center;verticalAlign=middle;resizable=0;points=[];" parent="6wgVJU0eq-c5YWtlfM_m-13" vertex="1" connectable="0">
          <mxGeometry x="0.4157" y="2" relative="1" as="geometry">
            <mxPoint x="14" y="1" as="offset" />
          </mxGeometry>
        </mxCell>
        <mxCell id="6wgVJU0eq-c5YWtlfM_m-15" value="" style="endArrow=open;endFill=1;endSize=12;html=1;rounded=0;" parent="1" source="6wgVJU0eq-c5YWtlfM_m-17" target="I9XYT82SZLcXuWSCUwmC-47" edge="1">
          <mxGeometry width="160" relative="1" as="geometry">
            <mxPoint x="742" y="480" as="sourcePoint" />
            <mxPoint x="839.5707070707072" y="274" as="targetPoint" />
          </mxGeometry>
        </mxCell>
        <mxCell id="6wgVJU0eq-c5YWtlfM_m-17" value="VirtualServer" style="swimlane;fontStyle=1;align=center;verticalAlign=top;childLayout=stackLayout;horizontal=1;startSize=26;horizontalStack=0;resizeParent=1;resizeParentMax=0;resizeLast=0;collapsible=1;marginBottom=0;whiteSpace=wrap;html=1;" parent="1" vertex="1">
          <mxGeometry x="660" y="390" width="350" height="80" as="geometry" />
        </mxCell>
        <mxCell id="6wgVJU0eq-c5YWtlfM_m-18" value="&lt;div&gt;- configuration: VirtualServerConfiguration&lt;/div&gt;&lt;div&gt;&lt;br&gt;&lt;/div&gt;" style="text;strokeColor=none;fillColor=none;align=left;verticalAlign=top;spacingLeft=4;spacingRight=4;overflow=hidden;rotatable=0;points=[[0,0.5],[1,0.5]];portConstraint=eastwest;whiteSpace=wrap;html=1;" parent="6wgVJU0eq-c5YWtlfM_m-17" vertex="1">
          <mxGeometry y="26" width="350" height="24" as="geometry" />
        </mxCell>
        <mxCell id="6wgVJU0eq-c5YWtlfM_m-19" value="" style="line;strokeWidth=1;fillColor=none;align=left;verticalAlign=middle;spacingTop=-1;spacingLeft=3;spacingRight=3;rotatable=0;labelPosition=right;points=[];portConstraint=eastwest;strokeColor=inherit;" parent="6wgVJU0eq-c5YWtlfM_m-17" vertex="1">
          <mxGeometry y="50" width="350" height="8" as="geometry" />
        </mxCell>
        <mxCell id="6wgVJU0eq-c5YWtlfM_m-20" value="+ VirtualServer(Configuration)&lt;div&gt;&lt;br&gt;&lt;/div&gt;" style="text;strokeColor=none;fillColor=none;align=left;verticalAlign=top;spacingLeft=4;spacingRight=4;overflow=hidden;rotatable=0;points=[[0,0.5],[1,0.5]];portConstraint=eastwest;whiteSpace=wrap;html=1;" parent="6wgVJU0eq-c5YWtlfM_m-17" vertex="1">
          <mxGeometry y="58" width="350" height="22" as="geometry" />
        </mxCell>
        <mxCell id="I9XYT82SZLcXuWSCUwmC-6" value="Connection" style="swimlane;fontStyle=1;align=center;verticalAlign=top;childLayout=stackLayout;horizontal=1;startSize=26;horizontalStack=0;resizeParent=1;resizeParentMax=0;resizeLast=0;collapsible=1;marginBottom=0;whiteSpace=wrap;html=1;" parent="1" vertex="1">
          <mxGeometry x="1140" y="397" width="260" height="190" as="geometry" />
        </mxCell>
        <mxCell id="I9XYT82SZLcXuWSCUwmC-7" value="- socket_fd: int&lt;div&gt;- cgi_fd: int[2]&lt;br&gt;&lt;div&gt;- request: Request&lt;br&gt;&lt;div&gt;&lt;span style=&quot;background-color: transparent; color: light-dark(rgb(0, 0, 0), rgb(255, 255, 255));&quot;&gt;- closing_timestamp: Timestamp&lt;/span&gt;&lt;/div&gt;&lt;/div&gt;&lt;div&gt;- configuration: VirtualServer *&lt;/div&gt;&lt;/div&gt;" style="text;strokeColor=none;fillColor=none;align=left;verticalAlign=top;spacingLeft=4;spacingRight=4;overflow=hidden;rotatable=0;points=[[0,0.5],[1,0.5]];portConstraint=eastwest;whiteSpace=wrap;html=1;" parent="I9XYT82SZLcXuWSCUwmC-6" vertex="1">
          <mxGeometry y="26" width="260" height="104" as="geometry" />
        </mxCell>
        <mxCell id="I9XYT82SZLcXuWSCUwmC-8" value="" style="line;strokeWidth=1;fillColor=none;align=left;verticalAlign=middle;spacingTop=-1;spacingLeft=3;spacingRight=3;rotatable=0;labelPosition=right;points=[];portConstraint=eastwest;strokeColor=inherit;" parent="I9XYT82SZLcXuWSCUwmC-6" vertex="1">
          <mxGeometry y="130" width="260" height="10" as="geometry" />
        </mxCell>
        <mxCell id="I9XYT82SZLcXuWSCUwmC-9" value="+ process(): Request *&lt;div&gt;+ getStatus(): ConnectionStatus&lt;/div&gt;" style="text;strokeColor=none;fillColor=none;align=left;verticalAlign=top;spacingLeft=4;spacingRight=4;overflow=hidden;rotatable=0;points=[[0,0.5],[1,0.5]];portConstraint=eastwest;whiteSpace=wrap;html=1;" parent="I9XYT82SZLcXuWSCUwmC-6" vertex="1">
          <mxGeometry y="140" width="260" height="50" as="geometry" />
        </mxCell>
        <mxCell id="I9XYT82SZLcXuWSCUwmC-10" value="ConnectionStatus &amp;lt;&amp;lt;Enum&amp;gt;&amp;gt;" style="swimlane;fontStyle=1;align=center;verticalAlign=top;childLayout=stackLayout;horizontal=1;startSize=26;horizontalStack=0;resizeParent=1;resizeParentMax=0;resizeLast=0;collapsible=1;marginBottom=0;whiteSpace=wrap;html=1;" parent="1" vertex="1">
          <mxGeometry x="970" y="230" width="290" height="100" as="geometry" />
        </mxCell>
        <mxCell id="I9XYT82SZLcXuWSCUwmC-11" value="IDLE, READING_REQUEST_HEADER, READING_REQUEST_BODY,&amp;nbsp; WRITING_RESPONSE, READING_CGI, WRITING_CGI, CLOSING" style="text;strokeColor=none;fillColor=none;align=left;verticalAlign=top;spacingLeft=4;spacingRight=4;overflow=hidden;rotatable=0;points=[[0,0.5],[1,0.5]];portConstraint=eastwest;whiteSpace=wrap;html=1;" parent="I9XYT82SZLcXuWSCUwmC-10" vertex="1">
          <mxGeometry y="26" width="290" height="74" as="geometry" />
        </mxCell>
        <mxCell id="I9XYT82SZLcXuWSCUwmC-14" value="" style="endArrow=open;endFill=1;endSize=12;html=1;rounded=0;" parent="1" source="I9XYT82SZLcXuWSCUwmC-6" target="I9XYT82SZLcXuWSCUwmC-10" edge="1">
          <mxGeometry width="160" relative="1" as="geometry">
            <mxPoint x="889" y="382" as="sourcePoint" />
            <mxPoint x="930" y="180" as="targetPoint" />
          </mxGeometry>
        </mxCell>
        <mxCell id="I9XYT82SZLcXuWSCUwmC-15" value="" style="endArrow=open;endFill=1;endSize=12;html=1;rounded=0;" parent="1" source="I9XYT82SZLcXuWSCUwmC-40" target="I9XYT82SZLcXuWSCUwmC-6" edge="1">
          <mxGeometry width="160" relative="1" as="geometry">
            <mxPoint x="870" y="412" as="sourcePoint" />
            <mxPoint x="911" y="210" as="targetPoint" />
          </mxGeometry>
        </mxCell>
        <mxCell id="I9XYT82SZLcXuWSCUwmC-18" value="Event" style="swimlane;fontStyle=1;align=center;verticalAlign=top;childLayout=stackLayout;horizontal=1;startSize=26;horizontalStack=0;resizeParent=1;resizeParentMax=0;resizeLast=0;collapsible=1;marginBottom=0;whiteSpace=wrap;html=1;" parent="1" vertex="1">
          <mxGeometry x="1180" y="641" width="240" height="70" as="geometry" />
        </mxCell>
        <mxCell id="I9XYT82SZLcXuWSCUwmC-19" value="+ event_Type: EventType&lt;div&gt;&lt;span style=&quot;background-color: transparent; color: light-dark(rgb(0, 0, 0), rgb(255, 255, 255));&quot;&gt;+ connection: Connection *&lt;/span&gt;&lt;/div&gt;&lt;div&gt;&lt;br&gt;&lt;/div&gt;" style="text;strokeColor=none;fillColor=none;align=left;verticalAlign=top;spacingLeft=4;spacingRight=4;overflow=hidden;rotatable=0;points=[[0,0.5],[1,0.5]];portConstraint=eastwest;whiteSpace=wrap;html=1;" parent="I9XYT82SZLcXuWSCUwmC-18" vertex="1">
          <mxGeometry y="26" width="240" height="44" as="geometry" />
        </mxCell>
        <mxCell id="I9XYT82SZLcXuWSCUwmC-22" value="EventType &amp;lt;&amp;lt;Enum&amp;gt;&amp;gt;" style="swimlane;fontStyle=1;align=center;verticalAlign=top;childLayout=stackLayout;horizontal=1;startSize=26;horizontalStack=0;resizeParent=1;resizeParentMax=0;resizeLast=0;collapsible=1;marginBottom=0;whiteSpace=wrap;html=1;" parent="1" vertex="1">
          <mxGeometry x="1185" y="790" width="230" height="70" as="geometry" />
        </mxCell>
        <mxCell id="I9XYT82SZLcXuWSCUwmC-23" value="NEW_VIRTUAL_SERVER, CLOSING, START_CGI,&amp;nbsp; END_CGI" style="text;strokeColor=none;fillColor=none;align=left;verticalAlign=top;spacingLeft=4;spacingRight=4;overflow=hidden;rotatable=0;points=[[0,0.5],[1,0.5]];portConstraint=eastwest;whiteSpace=wrap;html=1;" parent="I9XYT82SZLcXuWSCUwmC-22" vertex="1">
          <mxGeometry y="26" width="230" height="44" as="geometry" />
        </mxCell>
        <mxCell id="I9XYT82SZLcXuWSCUwmC-27" value="" style="endArrow=open;endFill=1;endSize=12;html=1;rounded=0;" parent="1" source="I9XYT82SZLcXuWSCUwmC-40" target="I9XYT82SZLcXuWSCUwmC-18" edge="1">
          <mxGeometry width="160" relative="1" as="geometry">
            <mxPoint x="936" y="400" as="sourcePoint" />
            <mxPoint x="1046" y="316" as="targetPoint" />
          </mxGeometry>
        </mxCell>
        <mxCell id="I9XYT82SZLcXuWSCUwmC-28" value="" style="endArrow=open;endFill=1;endSize=12;html=1;rounded=0;" parent="1" source="I9XYT82SZLcXuWSCUwmC-18" target="I9XYT82SZLcXuWSCUwmC-22" edge="1">
          <mxGeometry width="160" relative="1" as="geometry">
            <mxPoint x="1190" y="660" as="sourcePoint" />
            <mxPoint x="1260" y="670" as="targetPoint" />
          </mxGeometry>
        </mxCell>
        <mxCell id="I9XYT82SZLcXuWSCUwmC-40" value="Server" style="swimlane;fontStyle=1;align=center;verticalAlign=top;childLayout=stackLayout;horizontal=1;startSize=26;horizontalStack=0;resizeParent=1;resizeParentMax=0;resizeLast=0;collapsible=1;marginBottom=0;whiteSpace=wrap;html=1;" parent="1" vertex="1">
          <mxGeometry x="660" y="590" width="350" height="172" as="geometry" />
        </mxCell>
        <mxCell id="I9XYT82SZLcXuWSCUwmC-41" value="- virtual_servers: VirtualServer [*]&lt;div&gt;- connections: Connection [0 ... CONNECTION_LIMIT]&lt;/div&gt;&lt;div&gt;&lt;div&gt;&lt;div&gt;&lt;span style=&quot;background-color: transparent; color: light-dark(rgb(0, 0, 0), rgb(255, 255, 255));&quot;&gt;- events: Queue&amp;lt;Event&amp;gt; [0 ... *]&lt;/span&gt;&lt;/div&gt;&lt;/div&gt;&lt;div&gt;&lt;span style=&quot;background-color: transparent; color: light-dark(rgb(0, 0, 0), rgb(255, 255, 255));&quot;&gt;- poll_fd: int&lt;/span&gt;&lt;/div&gt;&lt;/div&gt;" style="text;strokeColor=none;fillColor=none;align=left;verticalAlign=top;spacingLeft=4;spacingRight=4;overflow=hidden;rotatable=0;points=[[0,0.5],[1,0.5]];portConstraint=eastwest;whiteSpace=wrap;html=1;" parent="I9XYT82SZLcXuWSCUwmC-40" vertex="1">
          <mxGeometry y="26" width="350" height="74" as="geometry" />
        </mxCell>
        <mxCell id="I9XYT82SZLcXuWSCUwmC-42" value="" style="line;strokeWidth=1;fillColor=none;align=left;verticalAlign=middle;spacingTop=-1;spacingLeft=3;spacingRight=3;rotatable=0;labelPosition=right;points=[];portConstraint=eastwest;strokeColor=inherit;" parent="I9XYT82SZLcXuWSCUwmC-40" vertex="1">
          <mxGeometry y="100" width="350" height="10" as="geometry" />
        </mxCell>
        <mxCell id="I9XYT82SZLcXuWSCUwmC-43" value="+ Server(config_file: String)&lt;div&gt;&lt;div&gt;+ Server()&lt;/div&gt;&lt;/div&gt;&lt;div&gt;+ run()&lt;/div&gt;" style="text;strokeColor=none;fillColor=none;align=left;verticalAlign=top;spacingLeft=4;spacingRight=4;overflow=hidden;rotatable=0;points=[[0,0.5],[1,0.5]];portConstraint=eastwest;whiteSpace=wrap;html=1;" parent="I9XYT82SZLcXuWSCUwmC-40" vertex="1">
          <mxGeometry y="110" width="350" height="62" as="geometry" />
        </mxCell>
        <mxCell id="I9XYT82SZLcXuWSCUwmC-44" value="" style="endArrow=open;endFill=1;endSize=12;html=1;rounded=0;" parent="1" source="I9XYT82SZLcXuWSCUwmC-40" target="6wgVJU0eq-c5YWtlfM_m-17" edge="1">
          <mxGeometry width="160" relative="1" as="geometry">
            <mxPoint x="942" y="400" as="sourcePoint" />
            <mxPoint x="1053" y="326" as="targetPoint" />
          </mxGeometry>
        </mxCell>
        <mxCell id="I9XYT82SZLcXuWSCUwmC-47" value="VirtualServerConfiguration" style="swimlane;fontStyle=1;align=center;verticalAlign=top;childLayout=stackLayout;horizontal=1;startSize=26;horizontalStack=0;resizeParent=1;resizeParentMax=0;resizeLast=0;collapsible=1;marginBottom=0;whiteSpace=wrap;html=1;" parent="1" vertex="1">
          <mxGeometry x="700" y="160" width="260" height="170" as="geometry" />
        </mxCell>
        <mxCell id="I9XYT82SZLcXuWSCUwmC-48" value="+ host: Host&lt;div&gt;+ port: int&lt;br&gt;&lt;div&gt;+ methods: Method [1..*]&lt;/div&gt;&lt;div&gt;+ server_name: String&lt;/div&gt;&lt;/div&gt;&lt;div&gt;+ error_page: Path&lt;/div&gt;&lt;div&gt;+ directory_request_file: Path&lt;/div&gt;&lt;div&gt;+ php_cgi: Path&lt;/div&gt;&lt;div&gt;+ python_cgi: Path&lt;/div&gt;&lt;div&gt;+ request_size_limit: int&lt;/div&gt;" style="text;strokeColor=none;fillColor=none;align=left;verticalAlign=top;spacingLeft=4;spacingRight=4;overflow=hidden;rotatable=0;points=[[0,0.5],[1,0.5]];portConstraint=eastwest;whiteSpace=wrap;html=1;" parent="I9XYT82SZLcXuWSCUwmC-47" vertex="1">
          <mxGeometry y="26" width="260" height="144" as="geometry" />
        </mxCell>
        <mxCell id="1a8JrGUghkv8qu4YOcdz-9" value="" style="endArrow=open;endFill=1;endSize=12;html=1;rounded=0;" parent="1" source="1a8JrGUghkv8qu4YOcdz-1" target="6wgVJU0eq-c5YWtlfM_m-31" edge="1">
          <mxGeometry width="160" relative="1" as="geometry">
            <mxPoint x="2919.5" y="-157" as="sourcePoint" />
            <mxPoint x="2919.5" y="-264" as="targetPoint" />
          </mxGeometry>
        </mxCell>
        <mxCell id="1a8JrGUghkv8qu4YOcdz-19" value="" style="endArrow=open;endFill=1;endSize=12;html=1;rounded=0;" parent="1" source="1a8JrGUghkv8qu4YOcdz-1" target="1a8JrGUghkv8qu4YOcdz-15" edge="1">
          <mxGeometry width="160" relative="1" as="geometry">
            <mxPoint x="2439.7479338842986" y="-424" as="sourcePoint" />
            <mxPoint x="2439.7479338842986" y="-474" as="targetPoint" />
          </mxGeometry>
        </mxCell>
        <mxCell id="1a8JrGUghkv8qu4YOcdz-24" value="" style="endArrow=open;endFill=1;endSize=12;html=1;rounded=0;" parent="1" source="1a8JrGUghkv8qu4YOcdz-1" target="1a8JrGUghkv8qu4YOcdz-20" edge="1">
          <mxGeometry width="160" relative="1" as="geometry">
            <mxPoint x="1553" y="-206" as="sourcePoint" />
            <mxPoint x="1400" y="-344" as="targetPoint" />
          </mxGeometry>
        </mxCell>
        <mxCell id="1a8JrGUghkv8qu4YOcdz-25" value="RequestParser" style="swimlane;fontStyle=1;align=center;verticalAlign=top;childLayout=stackLayout;horizontal=1;startSize=26;horizontalStack=0;resizeParent=1;resizeParentMax=0;resizeLast=0;collapsible=1;marginBottom=0;whiteSpace=wrap;html=1;" parent="1" vertex="1">
          <mxGeometry x="1860" y="-279" width="280" height="330" as="geometry" />
        </mxCell>
        <mxCell id="1a8JrGUghkv8qu4YOcdz-26" value="&lt;div&gt;+ length_constraints: size_t [] &amp;lt;Static, Const&amp;gt;&lt;/div&gt;&lt;div&gt;- _buffer: HTTPRequestBuffer&lt;/div&gt;&lt;div&gt;- _request: HTTPRequest &amp;amp;&lt;/div&gt;&lt;div&gt;- _error: HTTPError &amp;amp;&lt;/div&gt;&lt;div&gt;- _parsing_status: parsing_status&lt;/div&gt;&lt;div&gt;- _begin: String::it&lt;/div&gt;&lt;div&gt;- _end: String::it&lt;/div&gt;" style="text;strokeColor=none;fillColor=none;align=left;verticalAlign=top;spacingLeft=4;spacingRight=4;overflow=hidden;rotatable=0;points=[[0,0.5],[1,0.5]];portConstraint=eastwest;whiteSpace=wrap;html=1;" parent="1a8JrGUghkv8qu4YOcdz-25" vertex="1">
          <mxGeometry y="26" width="280" height="114" as="geometry" />
        </mxCell>
        <mxCell id="1a8JrGUghkv8qu4YOcdz-27" value="" style="line;strokeWidth=1;fillColor=none;align=left;verticalAlign=middle;spacingTop=-1;spacingLeft=3;spacingRight=3;rotatable=0;labelPosition=right;points=[];portConstraint=eastwest;strokeColor=inherit;" parent="1a8JrGUghkv8qu4YOcdz-25" vertex="1">
          <mxGeometry y="140" width="280" height="8" as="geometry" />
        </mxCell>
        <mxCell id="1a8JrGUghkv8qu4YOcdz-28" value="&lt;div&gt;+ RequestParser(HTTPRequest&amp;amp;, HTTPError &amp;amp;)&lt;/div&gt;&lt;div&gt;+ append(uint8 const *str, ssize_t size): void&lt;/div&gt;&lt;div&gt;+ new_request(): void&lt;/div&gt;&lt;div&gt;+ get_status(): parsing_status&lt;/div&gt;&lt;div&gt;+ parse_*_(): void &amp;lt;Many&amp;gt;&lt;/div&gt;&lt;div&gt;+ test_*_(): bool &amp;lt;Many&amp;gt;&lt;/div&gt;&lt;div&gt;+ process_headers(): void&lt;/div&gt;&lt;div&gt;- parse_*_(): void &amp;lt;Many&amp;gt;&amp;nbsp;&lt;/div&gt;&lt;div&gt;- get_*_(): void &amp;lt;Many&amp;gt;&lt;/div&gt;&lt;div&gt;- parse_{header field}_(): void &amp;lt;Many&amp;gt;&lt;/div&gt;&lt;div&gt;- normalize_path(): void&lt;/div&gt;&lt;div&gt;- percentage_decode(): void&lt;/div&gt;&lt;div&gt;&lt;br&gt;&lt;/div&gt;" style="text;strokeColor=none;fillColor=none;align=left;verticalAlign=top;spacingLeft=4;spacingRight=4;overflow=hidden;rotatable=0;points=[[0,0.5],[1,0.5]];portConstraint=eastwest;whiteSpace=wrap;html=1;" parent="1a8JrGUghkv8qu4YOcdz-25" vertex="1">
          <mxGeometry y="148" width="280" height="182" as="geometry" />
        </mxCell>
        <mxCell id="1a8JrGUghkv8qu4YOcdz-29" value="" style="endArrow=open;endFill=1;endSize=12;html=1;rounded=0;" parent="1" source="1a8JrGUghkv8qu4YOcdz-25" target="1a8JrGUghkv8qu4YOcdz-1" edge="1">
          <mxGeometry width="160" relative="1" as="geometry">
            <mxPoint x="1869.9962962962966" y="-40" as="sourcePoint" />
            <mxPoint x="1957.7" y="-200" as="targetPoint" />
          </mxGeometry>
        </mxCell>
        <mxCell id="1a8JrGUghkv8qu4YOcdz-32" value="&lt;i&gt;ReadNetBuffer&lt;/i&gt;&lt;div&gt;&lt;br&gt;&lt;/div&gt;" style="swimlane;fontStyle=1;align=center;verticalAlign=top;childLayout=stackLayout;horizontal=1;startSize=26;horizontalStack=0;resizeParent=1;resizeParentMax=0;resizeLast=0;collapsible=1;marginBottom=0;whiteSpace=wrap;html=1;" parent="1" vertex="1">
          <mxGeometry x="1080" y="-259" width="280" height="290" as="geometry" />
        </mxCell>
        <mxCell id="1a8JrGUghkv8qu4YOcdz-33" value="&lt;div&gt;- START_BUFFER_SIZE: Integer&lt;/div&gt;&lt;div&gt;- SHRINK_BUFFER_SIZE: Integer&lt;/div&gt;&lt;div&gt;&lt;span style=&quot;background-color: transparent; color: light-dark(rgb(0, 0, 0), rgb(255, 255, 255));&quot;&gt;&lt;br&gt;&lt;/span&gt;&lt;/div&gt;&lt;div&gt;&lt;span style=&quot;background-color: transparent; color: light-dark(rgb(0, 0, 0), rgb(255, 255, 255));&quot;&gt;- _buffer: uint8_t *&lt;/span&gt;&lt;/div&gt;&lt;div&gt;&lt;span style=&quot;background-color: transparent; color: light-dark(rgb(0, 0, 0), rgb(255, 255, 255));&quot;&gt;- _start: uint8_t *&lt;/span&gt;&lt;/div&gt;&lt;div&gt;&lt;span style=&quot;background-color: transparent; color: light-dark(rgb(0, 0, 0), rgb(255, 255, 255));&quot;&gt;- _end: uint8_t *&lt;/span&gt;&lt;/div&gt;&lt;div&gt;&lt;span style=&quot;background-color: transparent; color: light-dark(rgb(0, 0, 0), rgb(255, 255, 255));&quot;&gt;- _tail: uint8_t *&lt;/span&gt;&lt;/div&gt;" style="text;strokeColor=none;fillColor=none;align=left;verticalAlign=top;spacingLeft=4;spacingRight=4;overflow=hidden;rotatable=0;points=[[0,0.5],[1,0.5]];portConstraint=eastwest;whiteSpace=wrap;html=1;" parent="1a8JrGUghkv8qu4YOcdz-32" vertex="1">
          <mxGeometry y="26" width="280" height="114" as="geometry" />
        </mxCell>
        <mxCell id="1a8JrGUghkv8qu4YOcdz-34" value="" style="line;strokeWidth=1;fillColor=none;align=left;verticalAlign=middle;spacingTop=-1;spacingLeft=3;spacingRight=3;rotatable=0;labelPosition=right;points=[];portConstraint=eastwest;strokeColor=inherit;" parent="1a8JrGUghkv8qu4YOcdz-32" vertex="1">
          <mxGeometry y="140" width="280" height="8" as="geometry" />
        </mxCell>
        <mxCell id="1a8JrGUghkv8qu4YOcdz-35" value="&lt;div&gt;+ append(string, size)&lt;/div&gt;&lt;div&gt;+ expand(size_t min_size)&lt;/div&gt;&lt;div&gt;+ shrink()&lt;/div&gt;&lt;div&gt;+ consume_bytes(size_t size)&lt;/div&gt;&lt;div&gt;+ capacity(): Integer&lt;/div&gt;&lt;div&gt;+ size(): Integer&lt;/div&gt;&lt;div&gt;+ begin/cbegin: uint8_t *&lt;/div&gt;&lt;div&gt;+ end/cend: uint8_t *&lt;/div&gt;&lt;div&gt;# discard_current()&lt;/div&gt;&lt;div&gt;&lt;br&gt;&lt;/div&gt;" style="text;strokeColor=none;fillColor=none;align=left;verticalAlign=top;spacingLeft=4;spacingRight=4;overflow=hidden;rotatable=0;points=[[0,0.5],[1,0.5]];portConstraint=eastwest;whiteSpace=wrap;html=1;" parent="1a8JrGUghkv8qu4YOcdz-32" vertex="1">
          <mxGeometry y="148" width="280" height="142" as="geometry" />
        </mxCell>
        <mxCell id="1a8JrGUghkv8qu4YOcdz-36" value="" style="endArrow=open;endFill=1;endSize=12;html=1;rounded=0;" parent="1" source="1a8JrGUghkv8qu4YOcdz-25" target="MRHkmh8299stdfIDuQO7-5" edge="1">
          <mxGeometry width="160" relative="1" as="geometry">
            <mxPoint x="2106" y="84" as="sourcePoint" />
            <mxPoint x="1970" y="-110" as="targetPoint" />
          </mxGeometry>
        </mxCell>
        <mxCell id="MRHkmh8299stdfIDuQO7-5" value="&lt;div&gt;HTTPRequestBuffer&lt;/div&gt;&lt;div&gt;&lt;br&gt;&lt;/div&gt;" style="swimlane;fontStyle=1;align=center;verticalAlign=top;childLayout=stackLayout;horizontal=1;startSize=26;horizontalStack=0;resizeParent=1;resizeParentMax=0;resizeLast=0;collapsible=1;marginBottom=0;whiteSpace=wrap;html=1;" parent="1" vertex="1">
          <mxGeometry x="1450" y="-189" width="300" height="150" as="geometry" />
        </mxCell>
        <mxCell id="MRHkmh8299stdfIDuQO7-6" value="&lt;div&gt;- _offset: ssize_t&lt;/div&gt;&lt;div&gt;- _last_read_size: ssize_t&lt;/div&gt;&lt;div&gt;&lt;br&gt;&lt;/div&gt;" style="text;strokeColor=none;fillColor=none;align=left;verticalAlign=top;spacingLeft=4;spacingRight=4;overflow=hidden;rotatable=0;points=[[0,0.5],[1,0.5]];portConstraint=eastwest;whiteSpace=wrap;html=1;" parent="MRHkmh8299stdfIDuQO7-5" vertex="1">
          <mxGeometry y="26" width="300" height="44" as="geometry" />
        </mxCell>
        <mxCell id="MRHkmh8299stdfIDuQO7-7" value="" style="line;strokeWidth=1;fillColor=none;align=left;verticalAlign=middle;spacingTop=-1;spacingLeft=3;spacingRight=3;rotatable=0;labelPosition=right;points=[];portConstraint=eastwest;strokeColor=inherit;" parent="MRHkmh8299stdfIDuQO7-5" vertex="1">
          <mxGeometry y="70" width="300" height="8" as="geometry" />
        </mxCell>
        <mxCell id="MRHkmh8299stdfIDuQO7-8" value="&lt;div&gt;+ new_request()&lt;/div&gt;&lt;div&gt;+ get_crlf_line(str::it start, str::it end): bool&lt;/div&gt;&lt;div&gt;+ get_chunk(chunk_size, str::it start, str::it end): bool&lt;/div&gt;&lt;div&gt;+ previous_read_size(): ssize_t&lt;/div&gt;" style="text;strokeColor=none;fillColor=none;align=left;verticalAlign=top;spacingLeft=4;spacingRight=4;overflow=hidden;rotatable=0;points=[[0,0.5],[1,0.5]];portConstraint=eastwest;whiteSpace=wrap;html=1;" parent="MRHkmh8299stdfIDuQO7-5" vertex="1">
          <mxGeometry y="78" width="300" height="72" as="geometry" />
        </mxCell>
        <mxCell id="MRHkmh8299stdfIDuQO7-10" value="" style="endArrow=block;endSize=16;endFill=0;html=1;rounded=0;" parent="1" source="MRHkmh8299stdfIDuQO7-5" target="1a8JrGUghkv8qu4YOcdz-32" edge="1">
          <mxGeometry width="160" relative="1" as="geometry">
            <mxPoint x="2230" y="-60" as="sourcePoint" />
            <mxPoint x="2478" y="-250" as="targetPoint" />
          </mxGeometry>
        </mxCell>
        <mxCell id="FcTIGHXHcNx-jRWacmQ_-13" value="" style="endArrow=open;endFill=1;endSize=12;html=1;rounded=0;" parent="1" source="1a8JrGUghkv8qu4YOcdz-1" target="FcTIGHXHcNx-jRWacmQ_-8" edge="1">
          <mxGeometry width="160" relative="1" as="geometry">
            <mxPoint x="2988.59090909091" y="-250" as="sourcePoint" />
            <mxPoint x="2941.59090909091" y="-290" as="targetPoint" />
          </mxGeometry>
        </mxCell>
        <mxCell id="FlUNBvBTZBMKE0Q8Y5GF-1" value="&lt;div&gt;RequestValidator&lt;/div&gt;&lt;div&gt;&lt;br&gt;&lt;/div&gt;" style="swimlane;fontStyle=1;align=center;verticalAlign=top;childLayout=stackLayout;horizontal=1;startSize=26;horizontalStack=0;resizeParent=1;resizeParentMax=0;resizeLast=0;collapsible=1;marginBottom=0;whiteSpace=wrap;html=1;" vertex="1" parent="1">
          <mxGeometry x="1980" y="130" width="190" height="120" as="geometry" />
        </mxCell>
        <mxCell id="FlUNBvBTZBMKE0Q8Y5GF-2" value="&lt;div&gt;+ validate_*_(): void&lt;/div&gt;&lt;div&gt;+ error(): HTTPError *&lt;/div&gt;" style="text;strokeColor=none;fillColor=none;align=left;verticalAlign=top;spacingLeft=4;spacingRight=4;overflow=hidden;rotatable=0;points=[[0,0.5],[1,0.5]];portConstraint=eastwest;whiteSpace=wrap;html=1;" vertex="1" parent="FlUNBvBTZBMKE0Q8Y5GF-1">
          <mxGeometry y="26" width="190" height="44" as="geometry" />
        </mxCell>
        <mxCell id="FlUNBvBTZBMKE0Q8Y5GF-3" value="" style="line;strokeWidth=1;fillColor=none;align=left;verticalAlign=middle;spacingTop=-1;spacingLeft=3;spacingRight=3;rotatable=0;labelPosition=right;points=[];portConstraint=eastwest;strokeColor=inherit;" vertex="1" parent="FlUNBvBTZBMKE0Q8Y5GF-1">
          <mxGeometry y="70" width="190" height="8" as="geometry" />
        </mxCell>
        <mxCell id="FlUNBvBTZBMKE0Q8Y5GF-4" value="&lt;div&gt;- _error: HTTPError &amp;amp;&lt;/div&gt;&lt;div&gt;- _request: HTTPRequest &amp;amp;&lt;/div&gt;" style="text;strokeColor=none;fillColor=none;align=left;verticalAlign=top;spacingLeft=4;spacingRight=4;overflow=hidden;rotatable=0;points=[[0,0.5],[1,0.5]];portConstraint=eastwest;whiteSpace=wrap;html=1;" vertex="1" parent="FlUNBvBTZBMKE0Q8Y5GF-1">
          <mxGeometry y="78" width="190" height="42" as="geometry" />
        </mxCell>
        <mxCell id="FlUNBvBTZBMKE0Q8Y5GF-17" value="&lt;div&gt;SysFileBuffer&lt;/div&gt;" style="swimlane;fontStyle=1;align=center;verticalAlign=top;childLayout=stackLayout;horizontal=1;startSize=26;horizontalStack=0;resizeParent=1;resizeParentMax=0;resizeLast=0;collapsible=1;marginBottom=0;whiteSpace=wrap;html=1;" vertex="1" parent="1">
          <mxGeometry x="2510" y="1009" width="280" height="34" as="geometry" />
        </mxCell>
        <mxCell id="FlUNBvBTZBMKE0Q8Y5GF-19" value="" style="line;strokeWidth=1;fillColor=none;align=left;verticalAlign=middle;spacingTop=-1;spacingLeft=3;spacingRight=3;rotatable=0;labelPosition=right;points=[];portConstraint=eastwest;strokeColor=inherit;" vertex="1" parent="FlUNBvBTZBMKE0Q8Y5GF-17">
          <mxGeometry y="26" width="280" height="8" as="geometry" />
        </mxCell>
        <mxCell id="FlUNBvBTZBMKE0Q8Y5GF-25" value="SysNetBuffer" style="swimlane;fontStyle=1;align=center;verticalAlign=top;childLayout=stackLayout;horizontal=1;startSize=26;horizontalStack=0;resizeParent=1;resizeParentMax=0;resizeLast=0;collapsible=1;marginBottom=0;whiteSpace=wrap;html=1;" vertex="1" parent="1">
          <mxGeometry x="2210" y="1009" width="280" height="34" as="geometry" />
        </mxCell>
        <mxCell id="FlUNBvBTZBMKE0Q8Y5GF-27" value="" style="line;strokeWidth=1;fillColor=none;align=left;verticalAlign=middle;spacingTop=-1;spacingLeft=3;spacingRight=3;rotatable=0;labelPosition=right;points=[];portConstraint=eastwest;strokeColor=inherit;" vertex="1" parent="FlUNBvBTZBMKE0Q8Y5GF-25">
          <mxGeometry y="26" width="280" height="8" as="geometry" />
        </mxCell>
        <mxCell id="FlUNBvBTZBMKE0Q8Y5GF-29" value="&lt;i&gt;SysBuffer&lt;/i&gt;" style="swimlane;fontStyle=1;align=center;verticalAlign=top;childLayout=stackLayout;horizontal=1;startSize=26;horizontalStack=0;resizeParent=1;resizeParentMax=0;resizeLast=0;collapsible=1;marginBottom=0;whiteSpace=wrap;html=1;" vertex="1" parent="1">
          <mxGeometry x="2290" y="834" width="380" height="150" as="geometry" />
        </mxCell>
        <mxCell id="FlUNBvBTZBMKE0Q8Y5GF-30" value="&lt;div&gt;- request: HTTPRequest &amp;amp;&lt;/div&gt;&lt;div&gt;- buffer: HTTPRequestBuffer&lt;/div&gt;&lt;div&gt;&lt;br&gt;&lt;/div&gt;" style="text;strokeColor=none;fillColor=none;align=left;verticalAlign=top;spacingLeft=4;spacingRight=4;overflow=hidden;rotatable=0;points=[[0,0.5],[1,0.5]];portConstraint=eastwest;whiteSpace=wrap;html=1;" vertex="1" parent="FlUNBvBTZBMKE0Q8Y5GF-29">
          <mxGeometry y="26" width="380" height="44" as="geometry" />
        </mxCell>
        <mxCell id="FlUNBvBTZBMKE0Q8Y5GF-31" value="" style="line;strokeWidth=1;fillColor=none;align=left;verticalAlign=middle;spacingTop=-1;spacingLeft=3;spacingRight=3;rotatable=0;labelPosition=right;points=[];portConstraint=eastwest;strokeColor=inherit;" vertex="1" parent="FlUNBvBTZBMKE0Q8Y5GF-29">
          <mxGeometry y="70" width="380" height="8" as="geometry" />
        </mxCell>
        <mxCell id="FlUNBvBTZBMKE0Q8Y5GF-32" value="&lt;div&gt;+ SysBuffer(fd: Integer)&lt;/div&gt;&lt;div&gt;+ ~SysBuffer() &amp;lt;Virtual&amp;gt;&lt;/div&gt;&lt;div&gt;+ read(buff: uint8 *, size: size_t): ssize_t &amp;lt;Virtual, 0&amp;gt;&lt;/div&gt;&lt;div&gt;+ write(buff: uint8 *, size: size_t): ssize_t &amp;lt;Virtual, 0&amp;gt;&lt;/div&gt;&lt;div&gt;&lt;br&gt;&lt;/div&gt;" style="text;strokeColor=none;fillColor=none;align=left;verticalAlign=top;spacingLeft=4;spacingRight=4;overflow=hidden;rotatable=0;points=[[0,0.5],[1,0.5]];portConstraint=eastwest;whiteSpace=wrap;html=1;" vertex="1" parent="FlUNBvBTZBMKE0Q8Y5GF-29">
          <mxGeometry y="78" width="380" height="72" as="geometry" />
        </mxCell>
        <mxCell id="FlUNBvBTZBMKE0Q8Y5GF-33" value="HTTPError" style="swimlane;fontStyle=1;align=center;verticalAlign=top;childLayout=stackLayout;horizontal=1;startSize=26;horizontalStack=0;resizeParent=1;resizeParentMax=0;resizeLast=0;collapsible=1;marginBottom=0;whiteSpace=wrap;html=1;" vertex="1" parent="1">
          <mxGeometry x="2340" y="185" width="280" height="150" as="geometry" />
        </mxCell>
        <mxCell id="FlUNBvBTZBMKE0Q8Y5GF-34" value="&lt;div&gt;- _motive: String&lt;/div&gt;&lt;div&gt;- _status: Status&lt;/div&gt;" style="text;strokeColor=none;fillColor=none;align=left;verticalAlign=top;spacingLeft=4;spacingRight=4;overflow=hidden;rotatable=0;points=[[0,0.5],[1,0.5]];portConstraint=eastwest;whiteSpace=wrap;html=1;" vertex="1" parent="FlUNBvBTZBMKE0Q8Y5GF-33">
          <mxGeometry y="26" width="280" height="44" as="geometry" />
        </mxCell>
        <mxCell id="FlUNBvBTZBMKE0Q8Y5GF-35" value="" style="line;strokeWidth=1;fillColor=none;align=left;verticalAlign=middle;spacingTop=-1;spacingLeft=3;spacingRight=3;rotatable=0;labelPosition=right;points=[];portConstraint=eastwest;strokeColor=inherit;" vertex="1" parent="FlUNBvBTZBMKE0Q8Y5GF-33">
          <mxGeometry y="70" width="280" height="8" as="geometry" />
        </mxCell>
        <mxCell id="FlUNBvBTZBMKE0Q8Y5GF-36" value="&lt;div&gt;+ log(): void&lt;/div&gt;&lt;div&gt;+ status(): Status&lt;/div&gt;&lt;div&gt;+ msg(): String&lt;/div&gt;&lt;div&gt;+ set(String, Status): void&lt;/div&gt;" style="text;strokeColor=none;fillColor=none;align=left;verticalAlign=top;spacingLeft=4;spacingRight=4;overflow=hidden;rotatable=0;points=[[0,0.5],[1,0.5]];portConstraint=eastwest;whiteSpace=wrap;html=1;" vertex="1" parent="FlUNBvBTZBMKE0Q8Y5GF-33">
          <mxGeometry y="78" width="280" height="72" as="geometry" />
        </mxCell>
        <mxCell id="FlUNBvBTZBMKE0Q8Y5GF-37" value="Status &amp;lt;&amp;lt;ENUM&amp;gt;&amp;gt;" style="swimlane;fontStyle=1;align=center;verticalAlign=top;childLayout=stackLayout;horizontal=1;startSize=26;horizontalStack=0;resizeParent=1;resizeParentMax=0;resizeLast=0;collapsible=1;marginBottom=0;whiteSpace=wrap;html=1;" vertex="1" parent="1">
          <mxGeometry x="2340" y="31" width="280" height="50" as="geometry" />
        </mxCell>
        <mxCell id="FlUNBvBTZBMKE0Q8Y5GF-40" value="+ status_to_str(): String" style="text;strokeColor=none;fillColor=none;align=left;verticalAlign=top;spacingLeft=4;spacingRight=4;overflow=hidden;rotatable=0;points=[[0,0.5],[1,0.5]];portConstraint=eastwest;whiteSpace=wrap;html=1;" vertex="1" parent="FlUNBvBTZBMKE0Q8Y5GF-37">
          <mxGeometry y="26" width="280" height="24" as="geometry" />
        </mxCell>
        <mxCell id="FlUNBvBTZBMKE0Q8Y5GF-45" value="" style="endArrow=open;endFill=1;endSize=12;html=1;rounded=0;" edge="1" parent="1" source="6wgVJU0eq-c5YWtlfM_m-31" target="FlUNBvBTZBMKE0Q8Y5GF-43">
          <mxGeometry width="160" relative="1" as="geometry">
            <mxPoint x="3514.873417721519" y="876.9999999999964" as="sourcePoint" />
            <mxPoint x="3674.873417721519" y="819.9999999999964" as="targetPoint" />
          </mxGeometry>
        </mxCell>
        <mxCell id="FlUNBvBTZBMKE0Q8Y5GF-48" value="" style="endArrow=open;endFill=1;endSize=12;html=1;rounded=0;" edge="1" parent="1" source="6wgVJU0eq-c5YWtlfM_m-31" target="FlUNBvBTZBMKE0Q8Y5GF-47">
          <mxGeometry width="160" relative="1" as="geometry">
            <mxPoint x="3610.1863354037287" y="522" as="sourcePoint" />
            <mxPoint x="3780.1863354037287" y="490" as="targetPoint" />
          </mxGeometry>
        </mxCell>
        <mxCell id="FlUNBvBTZBMKE0Q8Y5GF-51" value="MediaType &amp;lt;&amp;lt;Struct&amp;gt;&amp;gt;" style="swimlane;fontStyle=1;align=center;verticalAlign=top;childLayout=stackLayout;horizontal=1;startSize=26;horizontalStack=0;resizeParent=1;resizeParentMax=0;resizeLast=0;collapsible=1;marginBottom=0;whiteSpace=wrap;html=1;flipV=0;flipH=1;" vertex="1" parent="1">
          <mxGeometry x="3140" y="60" width="280" height="170" as="geometry" />
        </mxCell>
        <mxCell id="FlUNBvBTZBMKE0Q8Y5GF-52" value="&lt;div&gt;+ ACCEPTED_TYPES: t_mime_conf &amp;lt;Static&amp;gt;&lt;/div&gt;&lt;div&gt;+ TYPES_PATH: string &amp;lt;Static, Const&amp;gt;&lt;/div&gt;&lt;div&gt;&lt;br&gt;&lt;/div&gt;&lt;div&gt;+ type: String&lt;/div&gt;&lt;div&gt;+ subtype: String&lt;/div&gt;&lt;div&gt;+ parameters: [pair&amp;lt;string, string&amp;gt;]&lt;/div&gt;" style="text;strokeColor=none;fillColor=none;align=left;verticalAlign=top;spacingLeft=4;spacingRight=4;overflow=hidden;rotatable=0;points=[[0,0.5],[1,0.5]];portConstraint=eastwest;whiteSpace=wrap;html=1;" vertex="1" parent="FlUNBvBTZBMKE0Q8Y5GF-51">
          <mxGeometry y="26" width="280" height="104" as="geometry" />
        </mxCell>
        <mxCell id="FlUNBvBTZBMKE0Q8Y5GF-53" value="" style="line;strokeWidth=1;fillColor=none;align=left;verticalAlign=middle;spacingTop=-1;spacingLeft=3;spacingRight=3;rotatable=0;labelPosition=right;points=[];portConstraint=eastwest;strokeColor=inherit;" vertex="1" parent="FlUNBvBTZBMKE0Q8Y5GF-51">
          <mxGeometry y="130" width="280" height="8" as="geometry" />
        </mxCell>
        <mxCell id="FlUNBvBTZBMKE0Q8Y5GF-54" value="&lt;div&gt;+ load_types: void &amp;lt;Static&amp;gt;&lt;/div&gt;" style="text;strokeColor=none;fillColor=none;align=left;verticalAlign=top;spacingLeft=4;spacingRight=4;overflow=hidden;rotatable=0;points=[[0,0.5],[1,0.5]];portConstraint=eastwest;whiteSpace=wrap;html=1;" vertex="1" parent="FlUNBvBTZBMKE0Q8Y5GF-51">
          <mxGeometry y="138" width="280" height="32" as="geometry" />
        </mxCell>
        <mxCell id="FlUNBvBTZBMKE0Q8Y5GF-56" value="" style="endArrow=open;endFill=1;endSize=12;html=1;rounded=0;" edge="1" parent="1" source="6wgVJU0eq-c5YWtlfM_m-31" target="FlUNBvBTZBMKE0Q8Y5GF-51">
          <mxGeometry width="160" relative="1" as="geometry">
            <mxPoint x="3082.5" y="-594" as="sourcePoint" />
            <mxPoint x="3154.5" y="-804" as="targetPoint" />
          </mxGeometry>
        </mxCell>
        <mxCell id="FlUNBvBTZBMKE0Q8Y5GF-57" value="RequestManager" style="swimlane;fontStyle=1;align=center;verticalAlign=top;childLayout=stackLayout;horizontal=1;startSize=26;horizontalStack=0;resizeParent=1;resizeParentMax=0;resizeLast=0;collapsible=1;marginBottom=0;whiteSpace=wrap;html=1;" vertex="1" parent="1">
          <mxGeometry x="1490" y="150" width="450" height="220" as="geometry" />
        </mxCell>
        <mxCell id="FlUNBvBTZBMKE0Q8Y5GF-58" value="&lt;div&gt;- _READ_BUFFER_SIZE: size_t &amp;lt;Static, Const&amp;gt;&lt;/div&gt;&lt;div&gt;- _sys_buffer: SysBuffer *&lt;/div&gt;&lt;div&gt;- _request: HTTPRequest &amp;amp;&lt;/div&gt;&lt;div&gt;- _validator: RequestValidator&lt;/div&gt;&lt;div&gt;- _request_parser: RequestParser&lt;/div&gt;&lt;div&gt;- _read_buffer: uint8[READ_BUFFER_SIZE]&lt;/div&gt;" style="text;strokeColor=none;fillColor=none;align=left;verticalAlign=top;spacingLeft=4;spacingRight=4;overflow=hidden;rotatable=0;points=[[0,0.5],[1,0.5]];portConstraint=eastwest;whiteSpace=wrap;html=1;" vertex="1" parent="FlUNBvBTZBMKE0Q8Y5GF-57">
          <mxGeometry y="26" width="450" height="104" as="geometry" />
        </mxCell>
        <mxCell id="FlUNBvBTZBMKE0Q8Y5GF-59" value="" style="line;strokeWidth=1;fillColor=none;align=left;verticalAlign=middle;spacingTop=-1;spacingLeft=3;spacingRight=3;rotatable=0;labelPosition=right;points=[];portConstraint=eastwest;strokeColor=inherit;" vertex="1" parent="FlUNBvBTZBMKE0Q8Y5GF-57">
          <mxGeometry y="130" width="450" height="8" as="geometry" />
        </mxCell>
        <mxCell id="FlUNBvBTZBMKE0Q8Y5GF-60" value="&lt;div&gt;+ RequestManager(HTTPRequest &amp;amp;, fd_type, fd)&lt;/div&gt;&lt;div&gt;+ process(): void&lt;/div&gt;&lt;div&gt;+ request_done(): bool&lt;/div&gt;&lt;div&gt;+ new_request(): void&lt;/div&gt;&lt;div&gt;+ get_error(): HTTPError&lt;/div&gt;" style="text;strokeColor=none;fillColor=none;align=left;verticalAlign=top;spacingLeft=4;spacingRight=4;overflow=hidden;rotatable=0;points=[[0,0.5],[1,0.5]];portConstraint=eastwest;whiteSpace=wrap;html=1;" vertex="1" parent="FlUNBvBTZBMKE0Q8Y5GF-57">
          <mxGeometry y="138" width="450" height="82" as="geometry" />
        </mxCell>
        <mxCell id="FlUNBvBTZBMKE0Q8Y5GF-61" value="parsing_status &amp;lt;&amp;lt;Enum&amp;gt;&amp;gt;" style="swimlane;fontStyle=1;align=center;verticalAlign=top;childLayout=stackLayout;horizontal=1;startSize=26;horizontalStack=0;resizeParent=1;resizeParentMax=0;resizeLast=0;collapsible=1;marginBottom=0;whiteSpace=wrap;html=1;flipV=0;flipH=1;" vertex="1" parent="1">
          <mxGeometry x="1870" y="-390" width="280" height="90" as="geometry" />
        </mxCell>
        <mxCell id="FlUNBvBTZBMKE0Q8Y5GF-62" value="FIRST_LINE, HEADER_LINE, BODY, CHUNKED_SIZE, CHUNKED_BODY, TRAILER_LINE, DONE" style="text;strokeColor=none;fillColor=none;align=left;verticalAlign=top;spacingLeft=4;spacingRight=4;overflow=hidden;rotatable=0;points=[[0,0.5],[1,0.5]];portConstraint=eastwest;whiteSpace=wrap;html=1;" vertex="1" parent="FlUNBvBTZBMKE0Q8Y5GF-61">
          <mxGeometry y="26" width="280" height="64" as="geometry" />
        </mxCell>
        <mxCell id="FlUNBvBTZBMKE0Q8Y5GF-63" value="" style="endArrow=open;endFill=1;endSize=12;html=1;rounded=0;" edge="1" parent="1" source="1a8JrGUghkv8qu4YOcdz-25" target="FlUNBvBTZBMKE0Q8Y5GF-61">
          <mxGeometry width="160" relative="1" as="geometry">
            <mxPoint x="1710" y="-38" as="sourcePoint" />
            <mxPoint x="1830" y="-35.23076923076928" as="targetPoint" />
          </mxGeometry>
        </mxCell>
        <mxCell id="FlUNBvBTZBMKE0Q8Y5GF-64" value="" style="endArrow=open;endFill=1;endSize=12;html=1;rounded=0;" edge="1" parent="1" source="FlUNBvBTZBMKE0Q8Y5GF-57" target="1a8JrGUghkv8qu4YOcdz-25">
          <mxGeometry width="160" relative="1" as="geometry">
            <mxPoint x="1920" y="110" as="sourcePoint" />
            <mxPoint x="1790" y="151" as="targetPoint" />
          </mxGeometry>
        </mxCell>
        <mxCell id="FlUNBvBTZBMKE0Q8Y5GF-65" value="" style="endArrow=open;endFill=1;endSize=12;html=1;rounded=0;" edge="1" parent="1" source="I9XYT82SZLcXuWSCUwmC-6" target="FlUNBvBTZBMKE0Q8Y5GF-57">
          <mxGeometry width="160" relative="1" as="geometry">
            <mxPoint x="2160" y="329" as="sourcePoint" />
            <mxPoint x="2235" y="220" as="targetPoint" />
          </mxGeometry>
        </mxCell>
        <mxCell id="FlUNBvBTZBMKE0Q8Y5GF-67" value="" style="endArrow=open;endFill=1;endSize=12;html=1;rounded=0;" edge="1" parent="1" source="FlUNBvBTZBMKE0Q8Y5GF-33" target="FlUNBvBTZBMKE0Q8Y5GF-37">
          <mxGeometry width="160" relative="1" as="geometry">
            <mxPoint x="2819" y="599" as="sourcePoint" />
            <mxPoint x="2907" y="470" as="targetPoint" />
          </mxGeometry>
        </mxCell>
        <mxCell id="FlUNBvBTZBMKE0Q8Y5GF-21" value="SysBufferFactory" style="swimlane;fontStyle=1;align=center;verticalAlign=top;childLayout=stackLayout;horizontal=1;startSize=26;horizontalStack=0;resizeParent=1;resizeParentMax=0;resizeLast=0;collapsible=1;marginBottom=0;whiteSpace=wrap;html=1;" vertex="1" parent="1">
          <mxGeometry x="2349.5" y="1074" width="280" height="60" as="geometry" />
        </mxCell>
        <mxCell id="FlUNBvBTZBMKE0Q8Y5GF-22" value="+ get_buffer(Type, Fd): SysBuffer * &amp;lt;Static&amp;gt;" style="text;strokeColor=none;fillColor=none;align=left;verticalAlign=top;spacingLeft=4;spacingRight=4;overflow=hidden;rotatable=0;points=[[0,0.5],[1,0.5]];portConstraint=eastwest;whiteSpace=wrap;html=1;" vertex="1" parent="FlUNBvBTZBMKE0Q8Y5GF-21">
          <mxGeometry y="26" width="280" height="34" as="geometry" />
        </mxCell>
        <mxCell id="FlUNBvBTZBMKE0Q8Y5GF-68" value="" style="endArrow=block;endSize=16;endFill=0;html=1;rounded=0;" edge="1" parent="1" source="FlUNBvBTZBMKE0Q8Y5GF-25" target="FlUNBvBTZBMKE0Q8Y5GF-29">
          <mxGeometry width="160" relative="1" as="geometry">
            <mxPoint x="2095" y="1409" as="sourcePoint" />
            <mxPoint x="2080" y="1359" as="targetPoint" />
          </mxGeometry>
        </mxCell>
        <mxCell id="FlUNBvBTZBMKE0Q8Y5GF-69" value="" style="endArrow=block;endSize=16;endFill=0;html=1;rounded=0;" edge="1" parent="1" source="FlUNBvBTZBMKE0Q8Y5GF-17" target="FlUNBvBTZBMKE0Q8Y5GF-29">
          <mxGeometry width="160" relative="1" as="geometry">
            <mxPoint x="2270" y="1214" as="sourcePoint" />
            <mxPoint x="2403" y="1149" as="targetPoint" />
          </mxGeometry>
        </mxCell>
        <mxCell id="FlUNBvBTZBMKE0Q8Y5GF-71" value="" style="endArrow=open;endFill=1;endSize=12;html=1;rounded=0;" edge="1" parent="1" source="FlUNBvBTZBMKE0Q8Y5GF-57" target="FlUNBvBTZBMKE0Q8Y5GF-33">
          <mxGeometry width="160" relative="1" as="geometry">
            <mxPoint x="2351" y="249" as="sourcePoint" />
            <mxPoint x="2310" y="140" as="targetPoint" />
          </mxGeometry>
        </mxCell>
        <mxCell id="FlUNBvBTZBMKE0Q8Y5GF-72" value="" style="endArrow=open;endFill=1;endSize=12;html=1;rounded=0;" edge="1" parent="1" source="FlUNBvBTZBMKE0Q8Y5GF-1" target="FlUNBvBTZBMKE0Q8Y5GF-33">
          <mxGeometry width="160" relative="1" as="geometry">
            <mxPoint x="2440" y="434" as="sourcePoint" />
            <mxPoint x="2480" y="430" as="targetPoint" />
          </mxGeometry>
        </mxCell>
        <mxCell id="FlUNBvBTZBMKE0Q8Y5GF-73" value="" style="endArrow=open;endFill=1;endSize=12;html=1;rounded=0;" edge="1" parent="1" source="1a8JrGUghkv8qu4YOcdz-25" target="FlUNBvBTZBMKE0Q8Y5GF-33">
          <mxGeometry width="160" relative="1" as="geometry">
            <mxPoint x="2610" y="54" as="sourcePoint" />
            <mxPoint x="2650" y="50" as="targetPoint" />
          </mxGeometry>
        </mxCell>
        <mxCell id="FlUNBvBTZBMKE0Q8Y5GF-74" value="" style="endArrow=open;endFill=1;endSize=12;html=1;rounded=0;" edge="1" parent="1" source="FlUNBvBTZBMKE0Q8Y5GF-57" target="FlUNBvBTZBMKE0Q8Y5GF-1">
          <mxGeometry width="160" relative="1" as="geometry">
            <mxPoint x="1910" y="479" as="sourcePoint" />
            <mxPoint x="1923" y="200" as="targetPoint" />
          </mxGeometry>
        </mxCell>
        <mxCell id="FlUNBvBTZBMKE0Q8Y5GF-78" value="ResponseManager" style="swimlane;fontStyle=1;align=center;verticalAlign=top;childLayout=stackLayout;horizontal=1;startSize=26;horizontalStack=0;resizeParent=1;resizeParentMax=0;resizeLast=0;collapsible=1;marginBottom=0;whiteSpace=wrap;html=1;" vertex="1" parent="1">
          <mxGeometry x="1500" y="800" width="450" height="34" as="geometry" />
        </mxCell>
        <mxCell id="FlUNBvBTZBMKE0Q8Y5GF-80" value="" style="line;strokeWidth=1;fillColor=none;align=left;verticalAlign=middle;spacingTop=-1;spacingLeft=3;spacingRight=3;rotatable=0;labelPosition=right;points=[];portConstraint=eastwest;strokeColor=inherit;" vertex="1" parent="FlUNBvBTZBMKE0Q8Y5GF-78">
          <mxGeometry y="26" width="450" height="8" as="geometry" />
        </mxCell>
        <mxCell id="FlUNBvBTZBMKE0Q8Y5GF-82" value="" style="endArrow=open;endFill=1;endSize=12;html=1;rounded=0;" edge="1" parent="1" source="FlUNBvBTZBMKE0Q8Y5GF-57" target="1a8JrGUghkv8qu4YOcdz-1">
          <mxGeometry width="160" relative="1" as="geometry">
            <mxPoint x="1810" y="659" as="sourcePoint" />
            <mxPoint x="1888" y="560" as="targetPoint" />
          </mxGeometry>
        </mxCell>
        <mxCell id="FlUNBvBTZBMKE0Q8Y5GF-83" value="" style="endArrow=open;endFill=1;endSize=12;html=1;rounded=0;" edge="1" parent="1" source="FlUNBvBTZBMKE0Q8Y5GF-78" target="1a8JrGUghkv8qu4YOcdz-1">
          <mxGeometry width="160" relative="1" as="geometry">
            <mxPoint x="1730" y="630" as="sourcePoint" />
            <mxPoint x="1843" y="695" as="targetPoint" />
          </mxGeometry>
        </mxCell>
        <mxCell id="FlUNBvBTZBMKE0Q8Y5GF-84" value="" style="endArrow=open;endFill=1;endSize=12;html=1;rounded=0;" edge="1" parent="1" source="I9XYT82SZLcXuWSCUwmC-6" target="1a8JrGUghkv8qu4YOcdz-1">
          <mxGeometry width="160" relative="1" as="geometry">
            <mxPoint x="1750" y="580" as="sourcePoint" />
            <mxPoint x="1863" y="645" as="targetPoint" />
          </mxGeometry>
        </mxCell>
        <mxCell id="FlUNBvBTZBMKE0Q8Y5GF-85" value="" style="endArrow=open;endFill=1;endSize=12;html=1;rounded=0;" edge="1" parent="1" source="I9XYT82SZLcXuWSCUwmC-6" target="FlUNBvBTZBMKE0Q8Y5GF-78">
          <mxGeometry width="160" relative="1" as="geometry">
            <mxPoint x="1600" y="724" as="sourcePoint" />
            <mxPoint x="1704" y="670" as="targetPoint" />
          </mxGeometry>
        </mxCell>
        <mxCell id="FlUNBvBTZBMKE0Q8Y5GF-87" value="" style="endArrow=open;endFill=1;endSize=12;html=1;rounded=0;" edge="1" parent="1" source="FlUNBvBTZBMKE0Q8Y5GF-57" target="FlUNBvBTZBMKE0Q8Y5GF-29">
          <mxGeometry width="160" relative="1" as="geometry">
            <mxPoint x="1799.9597701149423" y="490.99999999999955" as="sourcePoint" />
            <mxPoint x="2419.5" y="711" as="targetPoint" />
          </mxGeometry>
        </mxCell>
        <mxCell id="FlUNBvBTZBMKE0Q8Y5GF-88" value="" style="endArrow=open;endFill=1;endSize=12;html=1;rounded=0;" edge="1" parent="1" source="FlUNBvBTZBMKE0Q8Y5GF-78" target="FlUNBvBTZBMKE0Q8Y5GF-33">
          <mxGeometry width="160" relative="1" as="geometry">
            <mxPoint x="1980" y="842" as="sourcePoint" />
            <mxPoint x="2560" y="620" as="targetPoint" />
          </mxGeometry>
        </mxCell>
        <mxCell id="FlUNBvBTZBMKE0Q8Y5GF-89" value="" style="endArrow=open;endFill=1;endSize=12;html=1;rounded=0;" edge="1" parent="1" source="FlUNBvBTZBMKE0Q8Y5GF-78" target="FlUNBvBTZBMKE0Q8Y5GF-29">
          <mxGeometry width="160" relative="1" as="geometry">
            <mxPoint x="1850" y="1055" as="sourcePoint" />
            <mxPoint x="2480" y="590" as="targetPoint" />
          </mxGeometry>
        </mxCell>
      </root>
    </mxGraphModel>
  </diagram>
</mxfile>
